<svg id="Capa_1" enable-background="new 0 0 512 512" height="512" viewBox="0 0 512 512" width="512" xmlns="http://www.w3.org/2000/svg"><g><path d="m299.099 42.19c-20.998 17.535-37.603 40.726-47.42 67.13-10.108-27.158-27.407-50.592-47.42-67.12l36.81-36.81c5.86-5.85 15.36-5.85 21.21 0 29.73 29.71 31.74 31.73 36.82 36.8z" fill="#aaeb3c"/><path d="m299.1 42.19c-21 17.53-37.6 40.73-47.42 67.13v-108.32c3.84 0 7.68 1.46 10.6 4.39 16.087 16.073 36.82 36.8 36.82 36.8z" fill="#87d700"/><path d="m415.259 9.35c-2.3-5.67-7.78-9.38-13.92-9.35-67.14.137-123.837 40.015-149.665 96.27-25.753-56.059-82.246-96.132-149.655-96.27-6.21 0-11.656 3.754-13.93 9.35-2.3 5.66-.94 12.15 3.44 16.41 32.66 31.666 56.858 73.802 66.77 121.84 12.3-4.28 25.51-6.6 39.25-6.6h117c10.74 0 21.15 1.42 31.05 4.08 10.229-47.04 34.228-88.304 66.22-119.32 4.38-4.26 5.75-10.75 3.44-16.41z" fill="#87d700"/><path d="m411.82 25.76c-32.166 31.187-55.778 72.043-66.22 119.32-9.9-2.66-20.31-4.08-31.05-4.08h-62.87v-44.75c25.743-56.099 82.404-96.117 149.66-96.25 6.14-.03 11.62 3.68 13.92 9.35 2.31 5.66.94 12.15-3.44 16.41z" fill="#64b400"/><path d="m314.5 136h-117c-68.925 0-125 56.075-125 125v126c0 68.925 56.075 125 125 125h117c68.925 0 125-56.075 125-125v-126c0-68.925-56.075-125-125-125z" fill="#fff200"/><path d="m439.5 261v126c0 68.93-56.07 125-125 125h-62.82v-376h62.82c68.942 0 125 56.087 125 125z" fill="#ffd604"/><g fill="#ffb605"><path d="m213.217 308.979c-2.186-5.579-7.604-9.537-13.959-9.537-6.37 0-11.798 3.977-13.974 9.578-5.601 2.176-9.578 7.604-9.578 13.974 0 6.354 3.957 11.773 9.537 13.959 2.146 5.659 7.603 9.689 14.014 9.689 6.396 0 11.842-4.011 14-9.648 5.638-2.157 9.648-7.603 9.648-14 .001-6.412-4.029-11.869-9.688-14.015z"/><path d="m213.217 415.078c-2.186-5.58-7.604-9.537-13.959-9.537-6.37 0-11.799 3.977-13.974 9.578-5.601 2.175-9.577 7.604-9.577 13.974 0 6.354 3.958 11.773 9.537 13.959 2.146 5.659 7.603 9.689 14.014 9.689 6.396 0 11.842-4.01 13.999-9.648 5.638-2.157 9.649-7.603 9.649-14 0-6.412-4.03-11.869-9.689-14.015z"/><path d="m213.217 204.798c-2.186-5.579-7.604-9.537-13.959-9.537-6.37 0-11.798 3.977-13.974 9.578-5.601 2.176-9.578 7.604-9.578 13.974 0 6.354 3.957 11.773 9.537 13.959 2.146 5.659 7.603 9.689 14.014 9.689 6.396 0 11.842-4.011 14-9.648 5.638-2.157 9.648-7.603 9.648-14 .001-6.412-4.029-11.869-9.688-14.015z"/><path d="m160.896 253.89c-2.186-5.58-7.604-9.537-13.959-9.537-8.284 0-15 6.716-15 15v17.199c0 8.284 6.716 15 15 15 6.396 0 11.842-4.01 13.999-9.648 5.638-2.157 9.649-7.603 9.649-14 0-6.411-4.03-11.867-9.689-14.014z"/><path d="m160.896 363.455c-2.186-5.58-7.604-9.537-13.959-9.537-8.284 0-15 6.716-15 15v17.199c0 8.284 6.716 15 15 15 6.396 0 11.842-4.01 13.999-9.648 5.638-2.157 9.649-7.603 9.649-14 0-6.411-4.03-11.868-9.689-14.014z"/><path d="m265.587 253.504c-2.186-5.579-7.604-9.537-13.959-9.537-6.37 0-11.798 3.977-13.974 9.578-5.601 2.176-9.578 7.604-9.578 13.974 0 6.354 3.957 11.773 9.537 13.959 2.146 5.659 7.603 9.689 14.014 9.689 6.396 0 11.842-4.011 14-9.648 5.638-2.157 9.648-7.603 9.648-14 .001-6.412-4.029-11.869-9.688-14.015z"/></g><path d="m275.28 267.52c0 6.39-4.01 11.84-9.65 14-2.15 5.63-7.58 9.63-13.95 9.65v-47.2c6.33.02 11.73 3.96 13.91 9.53 5.66 2.15 9.69 7.61 9.69 14.02z" fill="#fc811c"/><path d="m317.956 308.979c-2.186-5.58-7.604-9.537-13.959-9.537-6.37 0-11.798 3.977-13.974 9.578-5.601 2.176-9.578 7.604-9.578 13.974 0 6.354 3.957 11.773 9.537 13.959 2.146 5.659 7.603 9.689 14.014 9.689 6.396 0 11.843-4.011 14-9.649 5.637-2.157 9.648-7.603 9.648-13.999.001-6.412-4.029-11.868-9.688-14.015z" fill="#fc811c"/><path d="m317.957 415.078c-2.186-5.58-7.604-9.538-13.959-9.538-6.37 0-11.799 3.977-13.974 9.578-5.601 2.175-9.577 7.604-9.577 13.974 0 6.354 3.958 11.773 9.537 13.959 2.146 5.659 7.603 9.689 14.014 9.689 6.396 0 11.842-4.01 13.999-9.648 5.638-2.157 9.648-7.603 9.648-13.999 0-6.412-4.03-11.869-9.688-14.015z" fill="#fc811c"/><path d="m317.956 204.798c-2.186-5.58-7.604-9.537-13.959-9.537-6.37 0-11.798 3.977-13.974 9.578-5.601 2.176-9.578 7.604-9.578 13.974 0 6.354 3.957 11.773 9.537 13.959 2.146 5.659 7.603 9.689 14.014 9.689 6.396 0 11.843-4.011 14-9.649 5.637-2.157 9.648-7.603 9.648-13.999.001-6.412-4.029-11.868-9.688-14.015z" fill="#fc811c"/><path d="m365.063 244.353c-6.354 0-11.773 3.958-13.959 9.537-5.659 2.146-9.689 7.603-9.689 14.014 0 6.396 4.011 11.843 9.649 14 2.157 5.637 7.603 9.648 13.999 9.648 8.284 0 15-6.716 15-15v-17.199c0-8.284-6.716-15-15-15z" fill="#fc811c"/><path d="m365.063 353.917c-6.354 0-11.773 3.958-13.959 9.537-5.659 2.146-9.689 7.603-9.689 14.014 0 6.396 4.011 11.843 9.649 14 2.157 5.637 7.603 9.648 13.999 9.648 8.284 0 15-6.716 15-15v-17.199c0-8.284-6.716-15-15-15z" fill="#fc811c"/><path d="m265.587 363.455c-2.186-5.58-7.604-9.537-13.959-9.537-6.37 0-11.799 3.977-13.974 9.578-5.601 2.175-9.577 7.604-9.577 13.974 0 6.354 3.958 11.773 9.537 13.959 2.146 5.659 7.603 9.689 14.014 9.689 6.396 0 11.842-4.01 13.999-9.648 5.638-2.157 9.649-7.603 9.649-14 0-6.412-4.03-11.869-9.689-14.015z" fill="#ffb605"/><path d="m275.28 377.47c0 6.39-4.01 11.84-9.65 14-2.15 5.63-7.58 9.63-13.95 9.65v-47.2c6.33.02 11.73 3.96 13.91 9.53 5.66 2.15 9.69 7.61 9.69 14.02z" fill="#fc811c"/></g></svg>